:SAMPLES-PER-SECOND 30
:FULLY-SPECIFIED
:DEGREES
122
root  34.75166081 36.55313507 -14.22135811 10.0762291 -4.764116287 4.31360054
lowerback  -7.587240696 -0.2943830788 -0.889829278
upperback  -4.154160023 0.2331420034 -4.639689922
thorax  -0.02377440035 0.3102869987 -4.28426981
lowerneck  -4.069149971 -16.06900024 -11.06900024
upperneck  7.770480156 -21.96479797 12.21560001
head  5.570690155 -10.5017004 3.700779915
lclavicle  0 -4.497500157e-015 -2.743230041e-014
lhumerus  -48.13700104 29.99349976 61.32519913
lradius  0.005820068996 -6.507048965e-006 29.09379768
lwrist  4.824992743e-007 -3.790274832e-007 -30.51959991
lhand  -0 -36.84529877 -10.55770016
lfingers  90 7.125020027 -90
lthumb  94.76564136 -25.3976495 100.9998888
rclavicle  0 -4.497500157e-015 -2.743230041e-014
rhumerus  21.12269974 -42.50669861 -33.75630188
rradius  -5.16745672e-007 2.214343908e-008 71.11160278
rwrist  -2.867388866e-005 0.09442812949 -171.7389984
rhand  -1.771433873e-031 4.666210175 -5.528580189
rfingers  -90 -7.125020027 -90
rthumb  -83.97920484 -10.27595217 -59.4066407
rfemur  -12.07725239 14.44130325 11.94213963
rtibia  -0.7639405131 -2.00786829 19.20762444
rfoot  1.17705071 -22.87210655 -34.33468246
rtoes  4.088435913 19.59443019 -102.0318813
lfemur  -4.059317112 -16.45833015 -23.35984802
ltibia  7.04753685 -0.7932363153 7.121850967
lfoot  0.7494476438 -20.68356323 36.49856949
ltoes  -8.502608511 -18.17000487 -115.6134511
123
root  34.75471557 36.55379889 -14.22306571 10.09014034 -4.707603455 4.336063385
lowerback  -7.588640213 -0.2912010252 -0.8898014426
upperback  -4.13710022 0.2374060005 -4.646830082
thorax  -0.005030780099 0.312240988 -4.291329861
lowerneck  -4.065149784 -16.06579971 -11.08040047
upperneck  7.724840164 -21.95870209 12.2354002
head  5.558730125 -10.5024004 3.710419893
lclavicle  0 -4.497500157e-015 -2.743230041e-014
lhumerus  -48.12110138 29.99040031 61.33890152
lradius  0.005890048109 -6.507048965e-006 29.083498
lwrist  4.824992743e-007 -3.790274832e-007 -30.46820068
lhand  -0 -36.83779907 -10.6086998
lfingers  90 7.125020027 -90
lthumb  94.77290516 -25.4479213 100.9965
rclavicle  0 -4.497500157e-015 -2.743230041e-014
rhumerus  22.08790588 -42.728405 -33.88320541
rradius  -5.16745672e-007 2.214343908e-008 69.75450134
rwrist  -2.867388866e-005 0.09390424937 -171.3600006
rhand  -1.771636887e-031 4.745969772 -5.534170151
rfingers  -90 -7.125020027 -90
rthumb  -83.96118872 -10.27509742 -59.32896236
rfemur  -12.10119057 14.41723347 11.92805481
rtibia  -0.7855706811 -2.014880896 19.23626328
rfoot  1.1563375 -22.86039352 -34.37242508
rtoes  4.083322932 19.59545618 -102.0166354
lfemur  -4.122934341 -16.51024055 -23.35747147
ltibia  7.015630722 -0.7843796611 7.189052105
lfoot  0.7645132542 -20.73727989 36.50242996
ltoes  -8.512215241 -18.16562591 -115.6442615
124
root  34.75836206 36.55401515 -14.22444892 10.09032726 -4.658765316 4.364775658
lowerback  -7.588689804 -0.2794020474 -0.8981599212
upperback  -4.125239849 0.2536469996 -4.650489807
thorax  0.008406889625 0.3203940094 -4.289110184
lowerneck  -4.069479942 -16.0821991 -11.07479954
upperneck  7.677680016 -21.97920227 12.2524004
head  5.548510075 -10.51229954 3.713089943
lclavicle  0 -4.497500157e-015 -2.743230041e-014
lhumerus  -48.11059952 30.07089996 61.29660034
lradius  0.005972291809 -6.507048965e-006 29.05699921
lwrist  4.824992743e-007 -3.790274832e-007 -30.59499931
lhand  -4.41623136e-031 -36.91009903 -10.67959976
lfingers  90 7.125020027 -90
lthumb  94.82177915 -25.51501397 101.0802528
rclavicle  0 -4.497500157e-015 -2.743230041e-014
rhumerus  23.10610008 -42.98659897 -34.08269882
rradius  -5.16745672e-007 2.214343908e-008 68.32959747
rwrist  -2.867388866e-005 0.09336430579 -170.875
rhand  -1.771502993e-031 4.693520069 -5.419750214
rfingers  -90 -7.125020027 -90
rthumb  -83.91567908 -10.37096669 -59.36972204
rfemur  -12.11830616 14.36813831 11.90552235
rtibia  -0.8059056997 -2.024494886 19.27938843
rfoot  1.129067302 -22.86445236 -34.39118195
rtoes  4.07987854 19.59614658 -102.0063654
lfemur  -3.973936081 -16.55329704 -23.44590569
ltibia  7.133379936 -0.7935881615 6.929413319
lfoot  0.7481428981 -20.62123108 36.52820969
ltoes  -8.515622349 -18.16407139 -115.6551904
125
root  34.76279852 36.55386497 -14.225329 10.07588291 -4.616401196 4.380776405
lowerback  -7.599840641 -0.2688270509 -0.9265038967
upperback  -4.1167202 0.2715910077 -4.662129879
thorax  0.02464229986 0.330336988 -4.283790112
lowerneck  -4.101329803 -16.10400009 -10.99820042
upperneck  7.621970177 -22.00440216 12.23330021
head  5.528550148 -10.52330017 3.694489956
lclavicle  0 -4.497500157e-015 -2.743230041e-014
lhumerus  -48.07740021 30.05990028 61.27500153
lradius  0.006066254806 -6.507048965e-006 29.05279922
lwrist  4.824992743e-007 -3.790274832e-007 -30.65509987
lhand  -4.413698376e-031 -36.86629868 -10.68089962
lfingers  90 7.125020027 -90
lthumb  94.80151546 -25.51787425 101.0334935
rclavicle  0 -4.497500157e-015 -2.743230041e-014
rhumerus  24.07990074 -43.20349884 -34.31519699
rradius  -5.16745672e-007 2.214343908e-008 67.07730103
rwrist  -2.867388866e-005 0.09282231331 -170.552002
rhand  -1.771358111e-031 4.636089802 -5.488780022
rfingers  -90 -7.125020027 -90
rthumb  -83.96649753 -10.30875273 -59.43245224
rfemur  -12.12639427 14.38598824 11.90504169
rtibia  -0.8253464699 -1.985369802 19.32768059
rfoot  1.12056613 -22.77464867 -34.41348267
rtoes  4.079629967 19.59619638 -102.0056242
lfemur  -3.780676365 -16.54245567 -23.53904343
ltibia  7.270659447 -0.789511025 6.624862671
lfoot  0.7244814038 -20.52105904 36.52434921
ltoes  -8.559300695 -18.14407424 -115.7953768
126
root  34.76482902 36.55495531 -14.22700807 10.08477402 -4.571528435 4.384385586
lowerback  -7.587259293 -0.2550319731 -0.9558226466
upperback  -4.105559826 0.2922419906 -4.673099995
thorax  0.03067190014 0.3412410021 -4.276989937
lowerneck  -4.105500221 -16.11829948 -10.91499996
upperneck  7.528820038 -22.01659775 12.19750023
head  5.488180161 -10.53149986 3.675750017
lclavicle  0 -4.497500157e-015 -2.743230041e-014
lhumerus  -48.06269836 30.07169914 61.27130127
lradius  0.006171391811 -6.507048965e-006 29.05457115
lwrist  4.824992743e-007 -3.790274832e-007 -30.75359917
lhand  -0 -36.80270004 -10.54679966
lfingers  90 7.125020027 -90
lthumb  94.74346546 -25.38839339 100.9533507
rclavicle  0 -4.497500157e-015 -2.743230041e-014
rhumerus  24.93059921 -43.36249924 -34.37049866
rradius  -5.16745672e-007 2.214343908e-008 65.91210175
rwrist  -2.867388866e-005 0.09227830172 -170.2749939
rhand  -1.77079904e-031 4.407390118 -5.549409866
rfingers  -90 -7.125020027 -90
rthumb  -84.05735544 -10.24530881 -59.66219061
rfemur  -12.15724087 14.41755009 11.91603374
rtibia  -0.8431949019 -1.941414952 19.36925507
rfoot  1.11775291 -22.67288208 -34.43883514
rtoes  4.04343648 19.60341374 -101.8977284
lfemur  -3.90659976 -16.62765694 -23.48808289
ltibia  7.188319683 -0.8103331327 6.810334206
lfoot  0.7342332006 -20.53088188 36.53667068
ltoes  -8.574203639 -18.13722208 -115.8432422
127
root  34.76614464 36.55513253 -14.22844534 10.07164383 -4.513876438 4.411273003
lowerback  -7.58465004 -0.2424649447 -0.9627764821
upperback  -4.102592468 0.3095990121 -4.675600052
thorax  0.03540939838 0.350086987 -4.274300098
lowerneck  -4.114170074 -16.12879944 -10.92109966
upperneck  7.476759911 -22.02980042 12.23849964
head  5.480510235 -10.53660011 3.687419891
lclavicle  0 -4.497500157e-015 -2.743230041e-014
lhumerus  -48.06769943 30.12050056 61.25839996
lradius  0.006287157536 -6.507048965e-006 29.05801392
lwrist  4.824992743e-007 -3.790274832e-007 -30.8029995
lhand  -4.41004756e-031 -36.8030014 -10.61400032
lfingers  90 7.125020027 -90
lthumb  94.7577538 -25.45434248 100.9597633
rclavicle  0 -4.497500157e-015 -2.743230041e-014
rhumerus  25.73460197 -43.52859879 -34.34859848
rradius  -5.16745672e-007 2.214343908e-008 64.65570068
rwrist  -2.867388866e-005 0.09173230082 -169.8410034
rhand  -1.770994413e-031 4.488649845 -5.377150059
rfingers  -90 -7.125020027 -90
rthumb  -83.94758481 -10.39783771 -59.56669466
rfemur  -12.14766788 14.41942215 11.90845013
rtibia  -0.8642094135 -1.948801398 19.39816666
rfoot  1.096488118 -22.67555618 -34.48637772
rtoes  4.052779221 19.60155716 -101.9255763
lfemur  -3.724363804 -16.72182465 -23.58327484
ltibia  7.314478874 -0.8418595195 6.531320572
lfoot  0.7057901621 -20.3631134 36.56350327
ltoes  -8.559267937 -18.14408928 -115.7952716
128
root  34.76916336 36.55532176 -14.2298781 10.03075504 -4.452045918 4.427595615
lowerback  -7.60270977 -0.2339589745 -0.970448792
upperback  -4.102759361 0.3242020011 -4.682750225
thorax  0.03733470663 0.3584139943 -4.276380062
lowerneck  -4.113160133 -16.13019943 -10.91119957
upperneck  7.407700062 -22.02879715 12.26360035
head  5.460700035 -10.53662491 3.695950031
lclavicle  0 -4.497500157e-015 -2.743230041e-014
lhumerus  -48.08570099 30.22019958 61.18519974
lradius  0.006413006689 -6.507048965e-006 29.06049728
lwrist  4.824992743e-007 -3.790274832e-007 -30.84410095
lhand  -4.411234421e-031 -36.82360077 -10.76970005
lfingers  90 7.125020027 -90
lthumb  94.80029511 -25.60651718 100.9959929
rclavicle  0 -4.497500157e-015 -2.743230041e-014
rhumerus  26.57130432 -43.75650024 -34.45290375
rradius  -5.16745672e-007 2.214343908e-008 63.48199844
rwrist  -2.867388866e-005 0.09118437767 -169.8280029
rhand  -1.771374495e-031 4.642620087 -5.135449886
rfingers  -90 -7.125020027 -90
rthumb  -83.78197454 -10.61317891 -59.39288799
rfemur  -12.06973076 14.44025612 11.90962887
rtibia  -0.8726392388 -1.948098898 19.35551643
rfoot  1.096299648 -22.64333344 -34.578125
rtoes  4.080411244 19.59603984 -102.0079537
lfemur  -3.67827487 -16.74511528 -23.60492516
ltibia  7.315875053 -0.8306186795 6.521316051
lfoot  0.7124115229 -20.41476822 36.54651642
ltoes  -8.567206252 -18.14044123 -115.8207658
